<?xml version="1.0" encoding="utf-8"?>
<!-- Generator: Adobe Illustrator 26.0.3, SVG Export Plug-In . SVG Version: 6.00 Build 0)  -->
<svg version="1.1" id="Calque_1" xmlns="http://www.w3.org/2000/svg" xmlns:xlink="http://www.w3.org/1999/xlink" x="0px" y="0px"
	 viewBox="0 0 141 141" style="enable-background:new 0 0 141 141;" xml:space="preserve">
<style type="text/css">
	.st0{fill:#019D01;}
</style>
<path class="st0" d="M61.8,74.1c-5.6,7-10,7.4-16.4,1.4c-1.7-1.6-1.9-0.4-2.8,0.5c-5.9,5.9-12.7,4.8-15.7-2.8c-1.2-3-2.9-2.9-5-2.1
	c-3.9,1.5-6.4,4.3-6.1,8.7c0.3,4.1,4.8,8.5,8.9,8.6c9.3,0.1,18.6,0,28,0.1c6.5,0,9.1,2.6,9.1,8.9c0,11.5,0,23,0,34.5
	c0,6.5-2.2,8.7-8.7,8.7c-14.7,0-29.3,0-44,0c-5.9,0-8.4-2.7-8.4-8.6c0-5.8,2.6-8.4,8.6-8.5c9.2-0.1,18.3,0,27.5-0.2
	c5.5-0.1,9.1-3.3,9.3-8.5c0.2-3.7-1.6-7-5.5-7.9c-3.4-0.8-6.9-1.2-10.3-1.2c-7-0.2-14,0-21-0.1c-5.9-0.1-8.7-2.7-8.6-8.5
	C1,84-0.2,70.9,1.3,57.7C2.6,46.4,7.9,37,14.6,28.1c11.2-14.9,26.2-24,44.6-26.8c35.6-5.5,66.7,14.5,77.7,46.8
	c2.4,7.1,3.9,14.7,3.5,22.5c-0.4,8.3-0.1,16.6-0.1,25c0,7.6-2.5,10-10.3,10c-8.2,0-16.3,0-24.5,0c-3.6,0-7,0.8-9.2,3.9
	c-1.8,2.5-2.4,5.2-1,8c1.5,2.9,3.3,5.3,7.2,5c10-0.8,19.9,0.9,29.9,1c5.2,0.1,7.8,2.9,7.8,8.2c0,5.9-2.6,8.9-8.2,8.9
	c-14.8,0-29.6,0.1-44.5,0c-5.4,0-8.3-2.9-8.3-8.3c-0.1-11.8-0.1-23.6,0-35.5c0-5.7,3-8.4,8.7-8.4c9,0,18,0.1,27,0
	c7.2-0.1,11.6-6.3,9.1-12.5c-1.3-3.2-4-4.3-6.9-5.1c-1.9-0.5-2.3,0.9-3,2.4c-3.3,7.5-9.7,8.7-15.8,3c-1.4-1.3-1.9-1.1-3.2,0
	c-6,4.8-8.6,4.8-14.3,0c-1-0.9-1.5-1.3-2.8-0.2C71.3,81.6,67.8,81.2,61.8,74.1z"/>
</svg>
